<svg width="1080" height="1080" viewBox="0 0 1080 1080" fill="none" xmlns="http://www.w3.org/2000/svg">
<g clip-path="url(#clip0_1_2)">
<path d="M1188 -108H-108V1188H1188V-108Z" fill="white"/>
<path d="M979 71H109V1035H979V71Z" fill="white"/>
<path d="M937.844 464.917C931.828 462.568 926.438 458.625 919.458 458.719C917.042 458.74 914.667 459.109 912.271 459.13C893.151 459.271 874.052 459.453 854.724 459.641C809.849 563.896 765 668.109 719.87 772.943C679.604 773.818 638.807 773.703 598.005 774.438C595.771 764.948 590.5 758.266 582.552 753.516C578.333 751.005 574.047 748.609 569.698 746.375C568.589 745.823 567.255 745.568 566.448 744.208C569.443 742.896 572.531 743.266 575.547 743.01C577.964 742.802 580.036 743.38 582.182 744.578C588.839 748.333 595.219 752.411 601 757.479C604.505 760.568 608.464 763.057 613.188 763.953C614.984 764.302 616.849 764.37 618.167 762.667C619.203 761.354 619.156 758.542 617.932 756.812C617.057 755.547 615.953 754.437 614.849 753.359C605.906 744.693 595.682 737.62 585.568 730.432C581.583 727.599 577.068 726.24 572.068 726.469C568.615 726.63 565.156 726.49 561.401 726.49C562.302 724.141 563.083 722.135 563.823 720.109C565.688 715.089 564.859 710.776 560.573 707.255C559.396 706.286 557.807 705.411 557.438 703.911C556.682 700.802 554.307 699.583 551.771 698.589C548.203 697.182 545.438 695.271 545.484 690.917C545.484 690.297 545.141 689.672 544.906 689.073C543.109 684.099 540.047 682.229 534.75 682.854C530.854 683.292 527.24 684.557 523.667 686.146C494.526 699.052 465.385 711.932 436.266 724.833C435.302 725.271 434.401 725.755 433.318 725.411C429.771 724.255 426.083 723.568 422.401 722.021C422.125 717.276 421.823 712.505 421.594 707.76C421.411 703.891 421.479 699.995 421.203 696.125C420.417 685.318 419.542 674.516 418.255 663.755C417.031 653.521 416.182 643.224 415.005 632.995C413.047 615.714 410.995 598.432 408.901 581.177C407.401 568.76 405.536 556.406 403.094 544.151C397.5 516.182 388.719 489.245 377.135 463.208C375.818 460.286 375.339 457.036 373.818 454.271C370.75 448.719 367.896 443.099 365.385 437.266C362.437 430.38 359.49 423.443 354.328 417.823C350.734 413.927 347.073 410.078 343.318 406.349C341.771 404.828 341.219 403.422 341.818 401.255C342.901 397.406 343.755 393.49 344.536 389.573C345.25 385.932 345.042 385.885 341.656 384.458C340.047 383.766 338.109 383.792 336.703 382.365C337.88 377.526 338.917 372.687 340.875 367.755C342.531 369.021 343.891 369.99 345.182 371.026C349.328 374.323 353.474 377.641 357.62 380.932C365.568 387.245 374.255 392.271 383.766 395.771C396.901 400.635 409.453 399.849 421.661 392.594C430 387.641 437.328 381.693 443.385 374.135C446.036 370.844 448.5 367.365 451.771 364.411C458.312 368.146 464.766 371.807 471.422 375.609C474.187 371.094 476.833 366.969 479.255 362.708C490.245 343.542 500.609 324.026 510.677 304.37C515.031 295.87 519.271 287.276 521.964 278.057C524.083 270.87 525.375 263.5 526.5 256.099C528.344 243.729 528.323 231.401 525.651 219.167C522.193 203.318 515.651 188.802 506.646 175.37C499.573 164.818 491.417 155.141 482.964 145.693C477.365 139.427 471.698 133.203 465.385 127.63C453.016 116.641 438.755 108.526 423.99 101.292C417.609 98.1614 410.812 96.1302 403.766 94.9323C391.161 92.7708 378.448 91.802 365.641 91.7083C355.937 91.6406 346.24 92.0989 336.818 94.75C317.953 100.073 301.943 109.885 289.156 125C271.49 145.875 261.078 169.656 259.208 197.026C258.057 214.099 259.51 231.078 261.745 248.016C263.469 261.172 266.026 274.214 268.219 287.297C269.417 294.396 269.255 301.328 267.135 308.333C264.828 315.984 262.344 323.589 259.922 331.214C259.672 332.042 259.625 332.984 258.495 333.354C256.766 332.318 254.995 331.281 253.292 330.266C250.802 331.948 250.755 331.927 249.859 335.177C248.266 341.026 246.63 346.88 245.755 352.896C245.458 354.896 244.604 355.958 242.625 356.672C230.896 360.958 221.568 368.49 213.781 378.146C204.292 389.896 196.849 402.87 190.792 416.625C175.312 451.76 165.13 488.484 159.068 526.365C155.036 551.641 153.359 577.146 152.089 602.672C151.401 616.615 151.005 630.573 150.682 644.516C150.318 660.276 150.062 676.057 149.922 691.839C149.854 699.464 149.995 707.094 150.156 714.719C150.5 732.047 150.385 749.396 150.521 766.719C150.641 782.62 150.776 798.536 151.052 814.438C151.193 821.417 151.443 828.401 152.135 835.333C153.516 849.068 155.521 862.729 156.698 876.484C157.344 884.177 160.984 888.927 168.01 891.323C170.083 892.036 170.958 893.281 171.578 895.354C175.609 908.672 181.141 921.25 189.802 932.313C193.234 936.688 196.411 941.229 199.87 945.604C205.557 952.839 211.802 959.547 218.964 965.349C227.927 972.609 238.318 977.172 249.141 980.786C265.797 986.318 282.776 990.672 300.031 993.807C315.141 996.547 330.391 998.438 345.781 998.438C352.625 998.438 359.443 997.813 366.26 997.26C383.146 995.901 399.708 992.792 416.109 988.693C433.25 984.406 450.135 979.219 467.089 974.339C468.635 973.901 470.083 973.693 471.651 973.99C481.396 975.88 491.094 977.885 500.865 979.615C509.5 981.135 518.161 982.583 526.917 982.906C545.781 983.573 564.672 983.438 583.542 982.307C592.802 981.755 602.063 981.063 611.297 980.141C621.828 979.083 632.286 977.724 642.677 975.74C658.661 972.724 674.234 968.094 689.833 963.625C692.708 962.792 694.901 963.047 697.297 964.729C699.276 966.135 701.51 967.24 703.745 968.229C715.031 973.208 725.953 972.698 736.661 966.25C748.573 959.083 756.13 948.323 762.073 936.229C766.057 928.161 767.37 919.292 768.87 910.516C770.781 899.224 771.266 887.938 769.099 876.646C767.927 870.448 766.172 864.479 760.667 860.63C754.01 855.979 746.688 852.984 738.552 851.922C734.589 851.417 730.583 851.786 726.76 851.349C721.781 840.172 717.474 828.953 707.042 821.12C708.24 821.026 708.63 820.979 709.021 820.979C731.917 821.094 754.818 820.427 777.714 820.172C781.698 820.125 782.667 819.297 783.104 815.359C783.151 814.969 783.057 814.573 783.104 814.208C783.75 809.505 784.417 804.807 785.063 800.083C786.49 799.693 787.875 800.427 789.094 799.391C789.625 798.219 790.224 796.927 790.802 795.635C813.167 745.245 835.536 694.833 857.927 644.448C883.615 586.615 909.323 528.807 934.984 470.974C935.859 469.016 936.505 467.01 938.74 466.089C938.323 465.49 938.141 465.052 937.844 464.917ZM577.021 774.115C572.552 774.807 568.245 773.703 563.958 773.818C563.521 773.818 563.036 773.427 562.599 773.151C556.083 768.979 549.193 765.5 542.26 762.089C541.958 761.953 541.474 761.927 541.568 761.375C555.135 760.312 567.667 763.448 577.021 774.115Z" fill="#413F4C"/>
<path d="M375.661 789.807C363.057 792.042 350.688 795.151 338.526 799.161C311.688 808.031 285.01 817.339 259.438 829.484C241.125 838.167 224.333 849.203 209.495 863.12C208.437 864.109 207.24 864.828 206.042 865.589C195.953 871.854 185.771 878.026 176.833 885.979C176.161 886.578 175.448 887.13 174.479 887.266C172.891 887.5 171.604 888.328 170.844 889.641C169.599 889.594 168.677 889.135 167.729 888.719C162.937 886.646 159.786 883.74 159.349 877.865C158.589 867.984 156.953 858.167 155.797 848.307C153.078 825.286 152.943 802.156 152.917 779.026C152.896 760.776 152.781 742.552 152.391 724.302C152.115 711.495 151.906 698.682 152.276 685.896C152.76 669.49 152.641 653.062 153.312 636.635C153.797 624.745 154.073 612.859 154.578 600.969C154.995 591.036 155.5 581.109 156.443 571.198C157.021 565.161 157.479 559.125 158.078 553.089C161.026 523.344 166.719 494.156 175.354 465.536C180.703 447.844 186.828 430.448 194.682 413.698C201.135 399.963 208.807 386.969 219.036 375.609C225.531 368.401 233.089 362.687 242.323 359.417C242.578 359.323 242.786 359.161 243.036 359.094C246.38 358.354 247.807 356.214 248.198 352.849C248.891 347.062 250.594 341.49 252.068 335.865C252.297 334.99 252.531 334.115 253.495 332.964C280.151 349.74 306.87 366.557 333.781 383.49C333.156 388.167 331.844 392.547 330.068 397.271C326.682 397.271 323.344 397.198 320.005 397.292C318.458 397.339 316.938 397.661 315.417 397.937C314.797 398.052 314.198 398.422 314.104 399.182C314.016 399.875 314.333 400.427 314.979 400.75C315.901 401.208 316.849 401.646 317.771 402.083C327.12 406.464 336.495 410.792 345.203 416.417C351.104 420.219 355.594 425.104 358.958 431.302C378.771 467.885 393.49 506.318 401.323 547.26C404.365 563.115 406.438 579.104 408.255 595.141C409.917 609.745 411.688 624.354 413.323 638.964C414.5 649.469 415.51 660.021 416.708 670.526C418.552 686.448 418.969 702.484 419.844 718.474C419.891 719.375 419.844 720.271 419.844 721.516C412.38 719.531 405.167 717.62 397.979 715.687C384 711.953 370.385 707.182 356.818 702.182C340.344 696.125 323.714 690.526 307.01 685.135C306.156 684.859 305.214 684.792 304.474 683.87C303.786 670.203 304.911 656.427 305.214 642.396C308.276 641.057 311.344 639.745 314.38 638.365C321.109 635.323 327.792 632.214 333.224 627.052C334.333 625.99 335.781 625.969 337.214 625.229C337.974 622.443 336.911 619.677 336.495 616.958C335.208 608.135 334.099 599.333 333.5 590.417C332.813 580.115 331.661 569.865 330.807 559.589C330.323 553.807 330.047 548 329.677 542.193C329.01 531.5 328.318 520.812 327.672 510.099C327.49 506.87 327.49 503.625 327.328 500.396C326.823 489.292 326.474 478.187 325.714 467.104C325 456.943 323.849 446.807 322.839 436.693C322.677 435.078 322.677 433.349 321.661 431.969C319.932 431.901 320.12 433.099 320.188 434.089C320.807 441.161 321.318 448.255 322.167 455.286C323.25 464.385 323.896 473.531 324.359 482.703C325.115 498.323 325.531 513.948 326.615 529.568C327.51 542.333 328.135 555.094 329.125 567.839C330.188 581.339 331.635 594.818 332.766 608.344C333.021 611.521 333.688 614.703 333.339 618.25C330.068 618.964 326.844 618.411 323.714 618.109C308.693 616.635 294.063 618.547 279.688 622.833C255.5 630.047 232.969 640.76 212.401 655.458C207.448 659.005 203.094 663.245 199.016 667.786C198.531 668.339 198.026 668.891 197.427 669.583C195.812 666.427 196.042 663.271 195.719 660.276C194.521 648.729 193.719 637.141 192.932 625.552C192.151 613.943 191.828 602.328 191.068 590.74C190.839 587.12 190.927 583.505 190.859 579.885C190.63 569.036 189.708 558.161 190.26 547.307C190.812 536.365 191.943 525.464 194.245 514.708C194.87 511.781 194.87 511.667 192.198 510.375C191.182 510.927 191.089 512.031 190.724 512.953C188.812 517.885 186.969 522.865 185.057 527.771C182.682 533.828 181.625 540.073 181.302 546.615C180.307 566.891 178.719 587.146 179.182 607.49C179.479 620.297 180.448 633.042 181.714 645.781C182.542 654.125 183.234 662.51 184.458 670.802C184.896 673.776 185.818 676.562 186.62 679.422C187.359 682.026 189.156 683.151 191.781 683.224C194.917 683.312 197.953 682.693 200.995 682.208C202.266 682 203.505 681.839 205.026 681.724C206.62 710.708 209.38 739.396 215.599 767.526C218.458 769.229 221.568 768.839 224.448 769.255C235.552 770.844 246.703 772.089 257.828 773.495C268.953 774.901 280.057 776.375 291.182 777.802C300.26 778.953 309.339 780.083 318.438 781.234C329.677 782.667 340.922 784.141 352.161 785.568C359.188 786.464 366.24 787.297 373.286 788.146C374.026 788.839 375.776 787.917 375.661 789.807ZM365.406 633.917C367.849 633.661 368.635 631.635 369.74 630.297C378.422 619.771 387.5 609.562 395.771 598.505C395.609 597.604 394.984 597.026 393.927 597.583C393.281 597.927 392.75 598.573 392.292 599.193C384.365 609.885 375.359 619.677 366.995 630.021C366.24 630.969 364.948 631.729 365.406 633.917Z" fill="#BED1D8"/>
<path d="M459.901 228.911C460.182 230.411 459.073 231.333 458.615 232.484C456.677 237.187 458.984 241.193 464.052 241.656C466.354 241.865 468.703 241.865 471.031 241.677C475.661 241.333 480.266 240.828 484.875 240.318C488.401 239.927 491.807 240.62 495.219 241.333C498.995 242.141 502.729 242.625 506.693 241.979C511.411 241.219 515.167 239.052 518.51 235.87C520.375 234.099 522.193 232.276 524.453 231.104C525.557 231.542 525.281 232.437 525.302 233.151C525.974 252.229 523.182 270.755 515.651 288.38C508.167 305.87 498.672 322.365 489.734 339.141C484.391 349.182 478.932 359.161 472.875 368.792C470.891 371.948 469.969 372.156 466.651 370.266C461.401 367.271 456.151 364.229 450.714 361.12C447.094 366.255 443.203 370.865 439.24 375.38C430.719 385.125 420.464 392.359 407.818 395.677C401.573 397.318 395.266 396.625 389.042 394.943C377.224 391.719 367.021 385.521 357.552 377.938C354.12 375.198 350.203 372.891 347.396 369.62C344.698 366.49 343.245 362.271 341.057 358.656C334.818 348.38 328.505 338.146 322.167 327.943C321.615 327.042 321.271 325.682 319.427 325.776C318.969 327.344 318.458 328.906 318.62 330.776C319.521 341.948 320.922 353.099 321.339 364.323C321.453 367.089 322.328 369.828 321.682 373.24C301.391 360.474 281.417 347.917 261.234 335.224C262.755 330.385 264.161 325.708 265.682 321.073C267.25 316.281 268.63 311.443 270.016 306.604C271.51 301.422 272.016 296.24 270.911 290.937C270.776 290.224 270.615 289.396 271.396 288.521C278.63 289.927 285.589 288.198 292.104 284.88C297.865 281.932 303.208 278.266 308.37 274.375C311.781 271.812 315.187 269.255 318.62 266.724C319.979 265.734 321.318 264.766 323.229 265.708C324.104 266.146 325.276 265.984 326.245 265.526C327.12 265.135 327.792 264.536 327.214 263.427C322.26 263.38 320.51 262.208 319.266 257.068C317.771 250.917 317.125 244.698 317.859 238.292C318.505 232.901 319.01 227.531 320.417 222.276C321.776 217.234 323.964 212.646 327.328 208.547C333.432 201.104 347.349 197.531 356.354 207.557C362.229 214.099 366.12 221.495 365.521 230.667C365.385 232.74 364.948 234.766 364.443 236.75C364.026 238.385 364.531 239.307 365.917 240.271C374.76 246.495 384.599 247.76 395.078 246.745C408.693 245.432 420.995 240.068 433.318 234.745C440.74 231.542 448.479 229.651 456.542 229.26C457.646 229.167 458.729 228.359 459.901 228.911ZM436.589 365.932C436.312 365.797 436.198 365.656 436.109 365.682C435.599 365.75 435.094 365.797 434.609 365.932C426.224 368.49 419.589 365.266 414.151 359.229C410.281 354.922 408.786 349.828 411.432 344.182C411.755 343.469 412.193 342.781 411.411 342.021C410.354 341.557 409.776 342.203 409.271 343.031C407.474 345.937 407.104 349.047 407.885 352.365C409.708 359.943 414.891 364.458 421.641 367.641C425.969 369.667 430.396 369.437 434.911 368.448C436.339 368.099 437.26 367.526 436.589 365.932ZM484.276 312.391C484.37 311.193 484.208 310.224 483.146 309.625C482.042 309 481.026 309.599 480.292 310.224C476.604 313.333 473.839 317.182 472 321.651C471.562 322.714 471.562 323.953 472.599 324.854C473.865 325.937 475.109 325.271 476.12 324.531C479.323 322.229 481.557 319.094 483.286 315.594C483.818 314.557 484.297 313.495 484.276 312.391ZM472.068 288.245C472.849 289.234 473.703 289.073 474.578 288.797C476.672 288.125 478.771 287.552 481.005 287.573C487.5 287.667 493.469 289.464 498.833 293.104C499.25 293.406 499.641 293.771 500.104 294.005C500.609 294.255 501.115 294.12 501.464 293.656C501.807 293.198 501.828 292.687 501.437 292.25C501.094 291.859 500.745 291.469 500.333 291.167C492.568 286.031 484.182 283.844 474.948 286.099C473.703 286.375 472.479 286.766 472.068 288.245ZM340.182 217.599C340.276 218.479 340.182 218.958 340.391 219.167C344.859 223.958 346.312 229.927 347.208 236.151C347.552 238.453 347.995 240.734 348.453 243.016C348.635 243.984 349.12 244.698 350.271 244.422C350.964 243.776 350.755 242.969 350.667 242.229C350.068 237.625 349.583 232.99 348.177 228.547C347.396 226.078 346.562 223.594 345.115 221.448C344.005 219.792 342.995 217.88 340.182 217.599ZM614.385 756.375C604.964 746.859 594 739.302 583.057 731.698C579.484 729.208 575.318 728.682 571.214 728.75C564.583 728.865 557.948 729.49 551.312 729.969C541.911 730.661 532.651 732.323 523.484 734.484C515.583 736.354 507.75 738.562 499.87 740.5C494.573 741.812 489.208 742.391 483.771 741.125C468.703 737.599 453.708 733.75 438.823 729.417C436.568 728.771 433.99 729.12 432.073 728.13C427.88 725.937 423.37 725.062 418.943 723.865C405.005 720.042 390.953 716.656 377.25 712.021C366.719 708.474 356.401 704.375 345.875 700.849C328.271 694.948 310.995 687.948 292.729 684.073C289.781 683.453 288.745 682.026 288.49 678.87C288.375 677.323 288.51 675.755 288.349 674.214C287.266 663.823 286.391 653.406 286.094 642.969C285.979 638.708 285.724 634.448 285.219 630.229C284.99 628.365 285.031 626.38 284.203 624.698C283.005 624.193 282.062 624.63 281.047 624.932C263.151 630.297 246.01 637.396 229.906 646.932C223.896 650.484 217.995 654.193 212.401 658.385C211.042 659.401 209.818 660.365 210.214 662.484C210.901 666.151 211.224 669.906 211.891 673.568C214.771 689.307 217.927 704.995 222.583 720.339C225.505 729.995 228.365 739.646 232.604 748.818C233.526 750.797 234.792 752.203 236.797 753.104C241.286 755.083 245.849 756.833 250.615 758.125C257 759.854 263.562 760.5 270.036 761.651C282.87 763.953 295.839 765.271 308.807 766.51C318.969 767.479 329.057 768.839 339.146 770.224C348.474 771.49 357.76 773.193 367.115 774.255C379.807 775.682 392.547 776.557 405.214 778.193C416.594 779.667 428.021 780.937 439.401 782.432C448.479 783.656 457.625 784.417 466.745 785.104C474.349 785.703 481.901 786.464 489.458 787.385C496.552 788.26 503.026 787.479 508.51 782.297C511.229 779.74 514.224 777.432 517.219 775.198C521.385 772.089 525.974 770.224 531.339 771.396C535.901 772.391 540.323 773.703 544.703 775.339C550.854 777.667 556.75 780.703 563.151 782.411C564.745 782.823 566.333 783.469 567.99 782.505C567.969 782.021 568.083 781.536 567.875 781.307C565.411 778.125 562.391 775.547 558.87 773.609C554.214 771.073 549.536 768.562 544.865 766.099C542.927 765.062 540.901 764.208 538.964 763.125C537.839 762.505 536.594 761.719 537.078 760.13C537.516 758.75 538.828 758.818 540 758.797C545.302 758.724 550.599 758.635 555.828 759.714C562.51 761.099 568.703 763.333 573.891 768.057C577.896 771.698 582.203 775.036 586.422 778.448C588.562 780.177 591.005 781.214 594.344 781.234C591.536 775.198 588.307 770.036 583.354 766.12C579.302 762.896 574.901 760.177 570.203 757.943C566.01 755.937 561.792 753.979 557.578 751.974C556.682 751.536 555.526 751.281 555.849 749.854C558.729 749.578 569.49 754.464 578.521 759.807C585.911 764.187 591.49 770.224 595.682 777.734C595.568 772.687 593.677 768.38 591.052 764.323C587.984 759.599 583.24 756.906 578.635 754C574.026 751.099 569.026 748.958 564.26 746.328C563.198 745.755 562.276 744.995 562.552 743.609C562.807 742.365 563.937 742.115 564.906 741.88C568.682 740.964 572.552 740.682 576.401 740.385C578.542 740.224 580.453 741.005 582.297 742.021C589.667 746.099 596.693 750.641 603.052 756.214C606.464 759.208 610.38 761.49 615.448 761.88C617.312 759.417 615.885 757.896 614.385 756.375ZM465.089 723.656C473.312 727.76 481.786 731.24 490.542 734.047C492.271 734.604 493.974 735.13 496 734.417C499.068 728.266 503.901 726.146 510.953 727.344C516.042 728.198 521.229 726.812 525.651 723.656C527.307 722.484 528.505 721.052 527.495 718.656C526.5 718.359 525.536 717.922 524.542 717.807C517.635 716.932 510.724 716.172 503.833 715.271C498.604 714.578 493.375 713.75 488.172 712.969C487.13 712.807 486.073 712.62 486.167 711.172C487.177 710.135 488.375 710.661 489.458 710.802C495.589 711.677 501.714 712.578 507.818 713.589C511.391 714.187 514.271 713.333 517.036 710.849C519.891 708.266 523.208 706.172 526.411 703.979C528.417 702.62 529.266 702.901 530.531 704.859C531.089 705.734 531.547 706.656 531.984 707.599C533.687 711.219 535.349 714.88 537.031 718.495C538.021 720.594 539.474 722.068 541.891 722.094C543.042 721.099 543.365 719.812 543.641 718.568C545.781 708.911 545.255 699.328 542.63 689.859C541.521 685.896 538.734 684.63 534.474 685.25C529.406 685.99 524.911 688.292 520.307 690.318C507.776 695.849 495.266 701.38 482.734 706.885C473.865 710.776 465.016 714.672 455.552 718.844C459.099 720.641 462.068 722.182 465.089 723.656ZM546.979 711.656C546.589 716.677 546.542 721.974 541.891 725.411C544.562 729.167 546.797 729.281 549.099 725.776C552.927 719.974 554.745 713.427 555.344 706.562C555.484 705.089 555.182 703.292 553.755 702.417C551.609 701.104 549.422 699.833 546.615 699.073C547.375 703.453 547.302 707.578 546.979 711.656ZM560.896 721.536C561.266 720.594 561.562 719.604 561.818 718.615C563.151 713.474 562.417 711.656 557.531 708.219C556.656 714.927 554.677 721.193 551.057 727.323C557.693 727.552 558.823 726.859 560.896 721.536Z" fill="#C3895C"/>
<path d="M856.339 462.245C870.208 460.974 921.531 461.021 925.354 462.474C876.682 573.828 828.005 685.135 779.349 796.396C775.391 796.557 771.911 796.786 768.432 796.833C748.115 797.135 727.818 797.318 707.5 797.661C673.224 798.24 638.969 799.021 604.687 799.531C592.016 799.714 579.323 799.714 566.656 799.37C548.937 798.859 531.203 799.255 513.484 799.781C503.698 800.083 493.88 800.359 484.047 800.635C483.839 799.37 484.922 799.115 485.521 798.583C487.641 796.698 489.99 795.016 491.922 792.964C494 790.776 496.187 789.344 499.344 789.828C500.677 790.036 501.854 789.276 502.958 788.609C505.172 787.271 507.359 785.891 509.453 784.391C511.047 783.266 512.495 781.995 513.969 780.729C524.958 771.307 527.219 772.365 538.437 775.708C534.38 775.708 531.042 774.786 527.469 775.109C526.479 777.271 527.193 779.599 527.031 781.833C526.896 784 527.193 786.188 526.687 788.057C527.146 788.818 527.609 789.021 528.135 789.047C539.635 789.276 551.057 790.682 562.531 791.26C568.453 791.557 574.417 791.833 580.318 790.635C583.354 790.016 583.885 788.906 581.995 786.536C580.062 784.115 577.828 781.927 576.375 779.255C573.495 778.266 570.203 779.161 567.391 776.948C572.531 775.911 579.672 776.536 582.365 778.219C582.156 779.255 581.26 780.224 582.344 781.49C586.443 786.302 590.359 791.302 594.437 796.141C595.818 797.776 597.641 798.401 599.922 798.354C616.344 797.938 632.771 797.641 649.172 797.25C660.667 796.974 672.187 796.927 683.682 796.578C707.198 795.844 730.745 795.359 754.266 794.99C758.917 794.922 763.547 794.417 768.224 794.505C768.729 794.505 769.26 794.484 769.766 794.344C770.458 794.161 770.781 793.536 770.849 792.896C770.922 792.203 770.62 791.672 769.88 791.464C769.005 791.214 768.156 790.938 767.281 790.703C752.281 786.786 737.24 783.125 722.333 778.865C717.38 777.458 712.568 776.995 707.547 777.089C694.484 777.365 681.422 777.641 668.359 777.828C646.359 778.125 624.385 778.38 602.385 778.63C601 778.656 599.323 779.255 598.214 777.318C599.276 776.443 600.312 776.698 601.255 776.698C638.505 776.375 675.755 775.615 713.031 775.661C716 775.661 718.974 775.87 721.828 774.646C723.417 773.953 724.87 774.948 726.323 775.313C741.823 779.229 757.307 783.307 772.807 787.203C774.052 787.526 775.641 788.771 777.026 787.089C776.542 785.359 775.068 785.5 773.891 785.198C757.88 781.073 741.896 776.974 725.885 772.87C725.005 772.641 724.089 772.62 723.464 771.859C723.969 768.818 851.891 470.604 856.339 462.245ZM783.615 782.156C782.391 779.552 783.266 778.125 783.937 776.63C797.432 745.594 810.885 714.557 824.385 683.521C855.12 612.813 885.87 542.099 916.604 471.365C916.969 470.516 917.984 469.688 916.969 468.255C896.677 468.005 876.172 467.729 855.323 467.474C855.646 469.87 854.724 471.688 853.922 473.557C841.964 501.318 830.052 529.104 818.146 556.87C791.604 618.708 765.089 680.552 738.552 742.391C735.214 750.156 731.875 757.917 728.349 766.12C746.526 771.51 764.516 776.766 783.615 782.156ZM758.526 790.661C745.417 787.25 732.312 783.885 719.224 780.427C716.828 779.786 714.432 779.484 711.969 779.505C689.349 779.807 666.724 780.036 644.104 780.339C629.891 780.521 615.677 780.823 601.464 781.073C600.474 781.099 599.161 780.661 598.562 781.625C596.625 784.76 593.885 783.563 591.281 783.146C589.276 782.823 587.547 781.651 585.453 781.188C588.859 785.776 592.453 790.104 596.12 794.37C597.271 795.703 598.792 796.188 600.609 796.052C604.479 795.797 608.349 795.635 612.219 795.568C632.38 795.177 652.536 794.828 672.714 794.458C673.542 794.438 674.49 794.714 675.271 793.698C674.141 791.74 672.323 791.859 670.573 791.974C666.589 792.224 662.604 792.641 658.615 792.802C652.672 793.01 646.776 793.979 640.833 793.698C639.885 793.656 638.714 794.141 638.182 792.802C638.25 792.526 638.297 792.109 638.411 792.089C648.135 790.589 658.042 791.12 668.729 789.552C664.766 787.573 661.885 785.568 657.974 785.911C653.089 786.328 648.182 786.422 643.276 786.651C641.661 786.719 640.047 786.813 638.411 786.901C638.552 788.26 640.349 789.391 638.37 790.406C633.828 787.063 633.828 787.042 627.839 787.344C620.88 787.688 613.927 788.057 606.969 788.469C606 788.542 605.172 788.771 604.943 787.594C604.943 787.021 605.286 786.745 605.63 786.672C613.651 785.198 621.781 785.474 629.568 785.036C630.604 784.068 629.177 782.62 630.745 782.203C634.865 784.464 634.891 784.37 640.464 784.484C644.865 784.578 649.24 783.865 653.62 784C655.76 784.068 657.51 783.724 658.479 781.672C662.901 784.76 671.172 784.302 674.099 781.146C676.609 783.057 679.578 783.031 682.573 782.896C684.37 782.802 686.167 782.594 687.99 782.505C689.302 782.458 690.797 782.042 691.812 783.792C689.672 786.073 686.766 784.229 684.187 785.542C687.687 787.109 690.708 788.745 694.552 788.422C700.474 787.917 706.417 787.823 712.984 787.5C710.401 785.703 707.844 785.339 706.464 783.401C707.083 782.042 707.823 782.203 708.583 782.547C711.276 783.792 713.88 785.266 716.667 786.234C719.385 787.182 722.083 787.896 724.479 789.693C725.859 790.729 727.656 791.234 728.094 793.01C739.474 793.172 750.557 792.641 761.703 791.698C760.667 791.349 759.609 790.958 758.526 790.661ZM565.271 785.224C561.057 784.484 557.12 782.87 553.203 781.234C549.812 779.828 546.589 777.755 542.63 778.724C542.167 778.839 541.615 778.542 541.109 778.495C537.281 778.219 533.526 777.229 529.453 777.479C529.245 780.635 529.198 783.63 529.818 786.974C546.661 786.698 563.198 790.844 580.5 788.354C579.12 786.698 577.896 785.542 577.042 784.161C575.615 781.927 573.958 780.385 570.849 781.099C570.177 785.224 569.255 785.911 565.271 785.224ZM724.568 792.734C722.083 791.396 719.87 789.531 716.901 789.646C710.589 789.901 704.276 790.224 697.937 790.5C698.193 791.557 698.401 792.479 698.677 793.63C707.406 794.068 715.932 793.307 724.568 792.734ZM678.083 794.344C684.464 793.818 690.5 794.599 696.786 793.63C690.75 789.068 684.302 791.948 678.245 791.375C677.943 792.479 678.75 793.286 678.083 794.344ZM667.833 786.073C672.854 791.167 678.891 788.677 685.109 789.094C679.51 784.484 673.776 785.292 667.833 786.073Z" fill="#CFCFD0"/>
<path d="M311.344 883.281C313.141 884.089 313.781 882.891 314.589 882.151C319.036 878.005 323.297 873.698 327.813 869.62C343.453 855.474 360.224 842.823 378.057 831.557C388.557 824.922 399.432 818.974 410.557 813.469C414.036 811.766 417.542 810.151 421.432 809.552C424.865 809.021 427.974 807.292 431.453 806.693C433.365 806.375 435.255 806.073 437.188 806.052C439.906 806.052 442.625 806.052 445.344 806.052C469.901 806.073 494.458 804.646 519.016 805.495C527.375 805.797 535.786 805.542 544.125 806.766C544.63 806.833 545.161 806.833 545.667 806.813C554.469 806.396 563.224 807.453 571.974 807.802C579.948 808.099 587.917 808.839 595.885 809.323C602.958 809.76 610.031 810.292 617.057 810.911C625.26 811.604 633.505 811.813 641.682 812.891C645.625 813.422 649.63 813.422 653.62 813.771C667.714 815.057 681.724 816.995 695.635 819.646C706.51 821.719 713.026 828.469 717.891 837.682C721.323 844.229 724.13 851.026 727.01 857.797C729.917 864.594 733.188 871.208 737.146 877.406C741.453 884.156 743.021 891.646 744.333 899.292C745.693 907.13 745.073 915.005 745.094 922.885C745.094 924.615 744.333 926.162 744.406 927.865C744.448 928.995 744.75 930.099 746.109 929.938C747.167 929.797 747.031 928.833 747.099 927.839C747.443 922.313 747.49 916.781 747.563 911.25C747.604 906.068 747.167 900.953 746.042 895.906C745.927 895.448 745.833 894.938 746.526 894.25C747.604 896.391 748.714 898.396 749.635 900.49C753.573 909.5 756.568 918.807 758.109 928.557C758.479 930.88 757.625 933.162 757.214 935.396C756.776 937.792 755.807 940.099 754.979 942.401C754.542 943.599 754.057 944.823 752.813 945.51C752.375 945.745 751.661 946.182 751.708 946.458C752.234 951.229 748.25 953.505 745.74 956.203C741.339 960.906 735.88 964.453 729.823 966.984C722.083 970.234 714.526 969.568 706.854 966.823C700.542 964.568 695.266 960.604 689.854 956.87C680.615 950.49 671.495 943.922 662.281 937.495C657.094 933.875 651.823 930.375 646.568 926.828C646.453 926.76 646.359 926.667 646.271 926.599C641.432 922.839 636.25 922.287 630.26 923.74C616.552 927.057 603.307 931.755 589.99 936.229C573.844 941.641 557.417 946.089 540.99 950.583C525.813 954.729 510.677 958.943 495.609 963.531C488.214 965.787 480.75 967.818 473.333 970.026C470.802 970.787 468.333 971.135 465.755 970.214C464.833 969.891 463.75 969.662 462.896 970.375C462.115 971.458 463.38 971.964 463.427 972.859C446.219 977.859 429.078 983.135 411.667 987.287C400.906 989.865 390.01 991.802 379.047 993.412C363.771 995.672 348.453 995.927 333.089 995.49C327.443 995.328 321.776 994.682 316.177 993.875C304.083 992.146 292.036 989.958 280.151 987.031C267.109 983.828 254.188 980.281 241.677 975.375C228.042 970.026 216.755 961.62 207.193 950.49C200.859 943.141 195.146 935.328 189.411 927.563C182.198 917.797 177.682 906.646 174.042 895.125C173.167 892.359 174.849 890.677 176.646 889.156C182.339 884.297 188.141 879.573 194.547 875.63C196.641 874.344 198.599 872.266 200.833 871.922C204.682 871.323 206.708 868.672 209.406 866.578C213.802 863.167 218.802 860.677 223.688 858.052C243.198 847.547 263.589 839.135 284.755 832.641C298.557 828.401 312.516 824.734 326.797 822.432C339.885 820.313 352.943 818.146 366.078 816.37C369.531 815.911 373.078 814.807 377.042 815.609C376.214 817.156 375.016 817.87 373.906 818.698C357.323 831.302 341.609 844.917 327.51 860.287C322.375 865.885 317.469 871.74 313.391 878.214C312.307 879.802 310.995 881.323 311.344 883.281ZM235.599 942.703C236.198 942.427 236.448 942.354 236.635 942.193C237.281 941.667 237.349 940.859 237.557 940.12C245.182 913.927 252.344 887.615 258.865 861.115C258.885 861.047 258.724 860.912 258.635 860.818C258.542 860.724 258.427 860.677 258.104 860.469C256.422 860.724 256.401 862.292 256.031 863.583C253.406 872.729 251.172 882.016 248.729 891.208C244.51 907.01 240.021 922.724 235.62 938.484C235.229 939.844 234.536 941.135 235.599 942.703ZM267.021 866.068C265.984 866.229 265.682 867.016 265.292 867.865C263.75 871.302 262.943 874.964 261.766 878.51C258.24 889.156 254.833 899.849 251.813 910.651C249.833 917.724 248.063 924.844 246.266 931.943C245.943 933.188 244.375 934.87 246.495 935.469C248.219 935.953 248.083 933.901 248.359 932.724C251.651 919.729 255.089 906.781 259.161 894.016C261.745 885.906 264.37 877.823 266.995 869.734C267.385 868.557 268.172 867.406 267.021 866.068ZM378.932 788.24C376.786 788.24 375.036 788.24 373.307 788.24C374.047 788.859 375.797 787.917 375.682 789.807C376.927 789.99 377.984 789.74 378.932 788.24Z" fill="#187DA0"/>
<path d="M422.375 722.021C426.042 723.589 429.75 724.255 433.297 725.411C434.38 725.755 435.276 725.271 436.245 724.833C465.385 711.932 494.526 699.052 523.646 686.146C527.219 684.583 530.833 683.313 534.724 682.854C540.026 682.255 543.109 684.099 544.885 689.073C545.094 689.672 545.464 690.297 545.464 690.917C545.417 695.25 548.177 697.182 551.75 698.589C554.286 699.583 556.656 700.802 557.417 703.911C557.786 705.432 559.375 706.307 560.552 707.255C564.833 710.755 565.667 715.089 563.797 720.109C563.036 722.135 562.255 724.167 561.38 726.49C565.135 726.49 568.615 726.63 572.047 726.469C577.021 726.24 581.536 727.599 585.547 730.432C595.656 737.62 605.865 744.693 614.823 753.359C615.932 754.438 617.036 755.568 617.911 756.813C619.13 758.542 619.156 761.354 618.141 762.667C616.828 764.349 614.964 764.302 613.167 763.953C608.464 763.057 604.505 760.568 600.979 757.479C595.219 752.411 588.818 748.333 582.156 744.578C580.036 743.38 577.943 742.802 575.526 743.01C572.505 743.266 569.417 742.922 566.422 744.208C567.229 745.594 568.568 745.823 569.672 746.375C574.047 748.609 578.312 751.005 582.526 753.516C590.474 758.266 595.75 764.948 597.984 774.438C638.781 773.703 679.578 773.818 719.849 772.943C764.974 668.109 809.828 563.896 854.703 459.641C874.031 459.453 893.13 459.271 912.25 459.13C914.646 459.109 917.016 458.74 919.438 458.719C926.417 458.651 931.807 462.589 937.818 464.917C938.12 465.031 938.302 465.49 938.74 466.068C936.505 466.99 935.839 468.995 934.984 470.953C909.323 528.781 883.615 586.594 857.927 644.422C835.536 694.813 813.167 745.224 790.802 795.615C790.224 796.901 789.625 798.193 789.094 799.37C787.875 800.406 786.469 799.667 785.062 800.057C784.396 804.781 783.75 809.484 783.104 814.182C783.057 814.552 783.151 814.969 783.104 815.333C782.667 819.276 781.698 820.125 777.714 820.151C754.818 820.406 731.943 821.073 709.042 820.958C708.651 820.958 708.26 821.005 707.062 821.094C717.5 828.927 721.807 840.151 726.781 851.323C730.604 851.76 734.615 851.37 738.578 851.901C746.708 852.958 754.031 855.953 760.693 860.609C766.198 864.458 767.948 870.427 769.125 876.62C771.286 887.938 770.802 899.203 768.891 910.49C767.417 919.271 766.083 928.141 762.094 936.203C756.13 948.276 748.573 959.037 736.687 966.224C725.974 972.677 715.057 973.182 703.766 968.208C701.531 967.219 699.297 966.109 697.318 964.703C694.922 963.026 692.755 962.771 689.854 963.599C674.26 968.068 658.687 972.698 642.698 975.719C632.307 977.677 621.849 979.057 611.323 980.12C602.083 981.042 592.823 981.734 583.562 982.287C564.698 983.417 545.828 983.552 526.937 982.885C518.187 982.563 509.5 981.109 500.885 979.589C491.12 977.859 481.396 975.859 471.677 973.969C470.109 973.667 468.682 973.854 467.115 974.313C450.161 979.219 433.271 984.406 416.135 988.667C399.734 992.771 383.167 995.88 366.281 997.24C359.464 997.792 352.646 998.412 345.802 998.412C330.417 998.412 315.167 996.526 300.052 993.781C282.797 990.651 265.823 986.292 249.167 980.766C238.339 977.172 227.948 972.609 218.99 965.328C211.823 959.521 205.578 952.818 199.891 945.583C196.458 941.229 193.255 936.667 189.823 932.287C181.161 921.229 175.656 908.625 171.604 895.333C170.979 893.234 170.104 892.016 168.031 891.297C160.984 888.88 157.365 884.156 156.719 876.464C155.547 862.708 153.542 849.042 152.161 835.313C151.469 828.375 151.193 821.37 151.078 814.412C150.776 798.516 150.661 782.594 150.547 766.698C150.406 749.37 150.521 732.021 150.177 714.693C150.042 707.068 149.88 699.443 149.948 691.818C150.109 676.031 150.339 660.276 150.708 644.49C151.031 630.531 151.422 616.589 152.115 602.651C153.38 577.12 155.062 551.615 159.094 526.339C165.151 488.464 175.333 451.76 190.812 416.599C196.875 402.844 204.312 389.875 213.802 378.125C221.615 368.469 230.922 360.932 242.646 356.651C244.625 355.938 245.479 354.875 245.781 352.87C246.656 346.859 248.266 341.005 249.88 335.151C250.776 331.906 250.823 331.927 253.312 330.245C255.016 331.26 256.766 332.297 258.521 333.333C259.646 332.964 259.693 331.995 259.948 331.188C262.365 323.563 264.854 315.984 267.156 308.313C269.255 301.307 269.417 294.37 268.24 287.276C266.026 274.188 263.495 261.146 261.766 247.99C259.531 231.057 258.083 214.078 259.234 197.005C261.099 169.656 271.51 145.854 289.182 124.979C301.943 109.885 317.953 100.073 336.818 94.7761C346.24 92.125 355.937 91.6615 365.641 91.7083C378.448 91.7761 391.161 92.7708 403.807 94.9115C410.88 96.1094 417.656 98.1615 424.036 101.271C438.802 108.505 453.062 116.615 465.432 127.604C471.719 133.203 477.391 139.401 483.01 145.672C491.443 155.141 499.62 164.792 506.693 175.344C515.698 188.776 522.24 203.292 525.698 219.146C528.37 231.401 528.391 243.708 526.547 256.078C525.443 263.5 524.13 270.849 522.01 278.036C519.292 287.25 515.078 295.823 510.724 304.349C500.656 324 490.286 343.516 479.302 362.688C476.859 366.927 474.208 371.052 471.469 375.589C464.812 371.786 458.359 368.125 451.818 364.391C448.568 367.339 446.083 370.818 443.432 374.115C437.349 381.672 430.026 387.641 421.708 392.568C409.5 399.828 396.943 400.589 383.812 395.75C374.276 392.224 365.615 387.203 357.667 380.911C353.521 377.615 349.396 374.297 345.229 371.005C343.917 369.969 342.578 369 340.922 367.729C338.937 372.661 337.927 377.5 336.75 382.339C338.156 383.766 340.089 383.766 341.703 384.438C345.089 385.865 345.297 385.911 344.583 389.552C343.823 393.469 342.948 397.385 341.865 401.234C341.266 403.396 341.818 404.802 343.359 406.323C347.141 410.057 350.781 413.88 354.375 417.797C359.531 423.422 362.484 430.354 365.432 437.245C367.917 443.073 370.797 448.693 373.865 454.25C375.38 457.01 375.865 460.26 377.177 463.188C388.745 489.224 397.542 516.156 403.141 544.13C405.583 556.385 407.448 568.76 408.948 581.156C411.042 598.432 413.094 615.693 415.052 632.974C416.224 643.224 417.057 653.5 418.302 663.729C419.589 674.49 420.464 685.297 421.25 696.104C421.526 699.974 421.453 703.865 421.641 707.74C421.776 712.505 422.099 717.276 422.375 722.021ZM375.661 789.807C376.927 789.99 377.964 789.74 378.906 788.24C376.766 788.24 375.016 788.24 373.286 788.24C366.24 787.385 359.214 786.536 352.161 785.661C340.922 784.229 329.677 782.755 318.437 781.328C309.359 780.177 300.26 779.068 291.182 777.896C280.057 776.469 268.953 774.99 257.828 773.589C246.703 772.182 235.552 770.938 224.448 769.349C221.568 768.932 218.479 769.323 215.599 767.62C209.38 739.484 206.641 710.802 205.026 681.818C203.505 681.932 202.266 682.115 200.995 682.302C197.953 682.786 194.891 683.406 191.781 683.313C189.156 683.245 187.359 682.141 186.62 679.51C185.818 676.656 184.896 673.87 184.458 670.896C183.234 662.578 182.568 654.214 181.714 645.875C180.448 633.13 179.458 620.391 179.182 607.583C178.719 587.234 180.307 566.984 181.302 546.708C181.625 540.167 182.661 533.922 185.057 527.859C186.99 522.932 188.833 517.979 190.724 513.047C191.089 512.125 191.182 511.021 192.198 510.469C194.844 511.781 194.87 511.87 194.245 514.797C191.943 525.536 190.812 536.458 190.26 547.401C189.708 558.25 190.63 569.104 190.859 579.979C190.927 583.594 190.839 587.234 191.068 590.833C191.807 602.422 192.151 614.057 192.932 625.646C193.719 637.234 194.521 648.823 195.719 660.365C196.042 663.339 195.812 666.516 197.427 669.677C198.047 668.984 198.531 668.432 199.016 667.875C203.094 663.339 207.422 659.099 212.401 655.552C232.969 640.849 255.5 630.135 279.687 622.927C294.042 618.641 308.693 616.703 323.714 618.203C326.823 618.5 330.068 619.057 333.339 618.339C333.687 614.818 333.042 611.615 332.766 608.432C331.661 594.932 330.208 581.453 329.125 567.927C328.109 555.188 327.49 542.401 326.615 529.656C325.531 514.063 325.115 498.417 324.359 482.797C323.917 473.646 323.276 464.5 322.167 455.375C321.318 448.328 320.807 441.255 320.187 434.182C320.094 433.167 319.911 431.99 321.661 432.063C322.698 433.464 322.677 435.172 322.839 436.781C323.849 446.922 325 457.057 325.714 467.198C326.474 478.281 326.823 489.385 327.328 500.49C327.469 503.714 327.469 506.964 327.672 510.188C328.318 520.88 329.01 531.573 329.677 542.286C330.047 548.089 330.323 553.896 330.807 559.682C331.661 569.958 332.812 580.208 333.5 590.51C334.099 599.401 335.208 608.224 336.495 617.052C336.891 619.771 337.974 622.536 337.214 625.323C335.781 626.057 334.333 626.083 333.224 627.141C327.792 632.302 321.109 635.411 314.38 638.453C311.344 639.839 308.255 641.151 305.214 642.49C304.911 656.521 303.786 670.297 304.474 683.958C305.234 684.859 306.156 684.948 307.01 685.229C323.714 690.62 340.344 696.219 356.818 702.276C370.385 707.276 384.021 712.047 397.979 715.776C405.167 717.714 412.38 719.604 419.844 721.609C419.844 720.365 419.891 719.464 419.844 718.568C418.969 702.578 418.531 686.563 416.708 670.62C415.49 660.115 414.5 649.563 413.323 639.052C411.687 624.448 409.917 609.839 408.255 595.229C406.437 579.198 404.365 563.229 401.323 547.354C393.469 506.391 378.771 467.979 358.958 431.391C355.594 425.193 351.104 420.307 345.203 416.51C336.495 410.885 327.12 406.552 317.771 402.177C316.823 401.74 315.901 401.302 314.979 400.839C314.333 400.516 314.036 399.99 314.104 399.276C314.198 398.536 314.797 398.146 315.417 398.031C316.937 397.755 318.484 397.432 320.005 397.385C323.344 397.292 326.682 397.359 330.068 397.359C331.844 392.641 333.182 388.26 333.781 383.583C306.87 366.651 280.172 349.828 253.495 333.057C252.531 334.188 252.297 335.083 252.068 335.958C250.573 341.583 248.865 347.156 248.198 352.938C247.807 356.281 246.38 358.422 243.036 359.182C242.786 359.229 242.578 359.417 242.323 359.505C233.089 362.776 225.531 368.49 219.036 375.703C208.807 387.063 201.135 400.057 194.682 413.792C186.828 430.542 180.703 447.938 175.354 465.63C166.719 494.245 161.026 523.438 158.078 553.182C157.479 559.219 157.021 565.255 156.443 571.292C155.5 581.198 154.995 591.13 154.578 601.063C154.073 612.948 153.797 624.839 153.312 636.729C152.641 653.13 152.76 669.557 152.276 685.99C151.906 698.776 152.115 711.583 152.391 724.396C152.781 742.62 152.896 760.87 152.917 779.115C152.964 802.25 153.078 825.38 155.797 848.396C156.953 858.26 158.609 868.073 159.349 877.958C159.786 883.833 162.937 886.714 167.729 888.813C168.677 889.224 169.599 889.688 170.844 889.734C171.625 888.417 172.891 887.589 174.479 887.359C175.448 887.219 176.161 886.667 176.833 886.068C185.771 878.12 195.953 871.969 206.042 865.677C207.24 864.943 208.437 864.203 209.495 863.214C224.307 849.297 241.104 838.26 259.437 829.573C285.01 817.453 311.687 808.146 338.526 799.255C350.687 795.13 363.057 792.042 375.661 789.807ZM311.344 883.281C311.021 881.323 312.307 879.802 313.297 878.234C317.354 871.76 322.26 865.906 327.422 860.313C341.521 844.943 357.229 831.323 373.818 818.724C374.922 817.891 376.12 817.177 376.948 815.635C372.984 814.828 369.437 815.912 365.984 816.396C352.854 818.193 339.792 820.333 326.708 822.453C312.448 824.76 298.484 828.422 284.667 832.662C263.495 839.162 243.109 847.568 223.594 858.073C218.714 860.703 213.687 863.188 209.312 866.599C206.62 868.698 204.589 871.344 200.745 871.943C198.51 872.292 196.552 874.365 194.453 875.656C188.052 879.594 182.266 884.318 176.552 889.177C174.781 890.698 173.078 892.406 173.953 895.146C177.594 906.667 182.13 917.818 189.318 927.589C195.052 935.375 200.766 943.162 207.099 950.51C216.661 961.62 227.948 970.052 241.589 975.396C254.094 980.302 267.042 983.828 280.057 987.052C291.943 989.979 303.969 992.172 316.089 993.896C321.682 994.703 327.349 995.349 332.995 995.51C348.359 995.948 363.682 995.693 378.953 993.438C389.917 991.823 400.812 989.891 411.573 987.307C429.01 983.135 446.13 977.885 463.339 972.885C463.292 971.984 462.047 971.458 462.807 970.396C463.635 969.662 464.74 969.912 465.661 970.234C468.245 971.156 470.708 970.787 473.24 970.052C480.661 967.839 488.125 965.813 495.516 963.552C510.562 958.969 525.719 954.75 540.901 950.604C557.323 946.109 573.75 941.667 589.901 936.25C603.234 931.781 616.458 927.078 630.167 923.76C636.156 922.313 641.339 922.865 646.177 926.62C646.271 926.688 646.385 926.781 646.474 926.849C651.703 930.396 656.979 933.901 662.187 937.516C671.401 943.948 680.5 950.51 689.76 956.896C695.177 960.625 700.453 964.589 706.76 966.849C714.432 969.615 722.01 970.26 729.729 967.01C735.786 964.474 741.25 960.927 745.646 956.229C748.161 953.531 752.146 951.25 751.615 946.479C751.594 946.203 752.307 945.792 752.719 945.537C753.964 944.844 754.448 943.625 754.885 942.427C755.714 940.12 756.708 937.818 757.12 935.422C757.536 933.162 758.385 930.906 758.021 928.578C756.453 918.833 753.479 909.526 749.542 900.516C748.62 898.417 747.516 896.412 746.432 894.271C745.74 894.964 745.854 895.469 745.948 895.932C747.078 900.974 747.516 906.115 747.469 911.276C747.422 916.802 747.375 922.333 747.005 927.865C746.937 928.88 747.078 929.823 746.016 929.958C744.682 930.146 744.359 929.016 744.312 927.885C744.245 926.203 745.005 924.641 745.005 922.912C744.979 915.031 745.604 907.151 744.245 899.318C742.906 891.693 741.339 884.203 737.057 877.427C733.115 871.229 729.823 864.62 726.922 857.823C724.016 851.047 721.229 844.229 717.797 837.708C712.958 828.49 706.417 821.719 695.542 819.667C681.609 817.016 667.625 815.083 653.526 813.792C649.542 813.422 645.51 813.422 641.594 812.917C633.417 811.833 625.167 811.651 616.969 810.932C609.917 810.333 602.844 809.781 595.797 809.344C587.823 808.859 579.854 808.125 571.885 807.823C563.109 807.479 554.375 806.417 545.578 806.833C545.068 806.854 544.542 806.854 544.031 806.786C535.719 805.568 527.286 805.797 518.922 805.521C494.365 804.667 469.807 806.094 445.25 806.073C442.536 806.073 439.818 806.073 437.099 806.073C435.161 806.073 433.297 806.375 431.359 806.719C427.906 807.318 424.797 809.047 421.339 809.573C417.448 810.172 413.948 811.766 410.469 813.49C399.339 819 388.469 824.922 377.964 831.578C360.13 842.844 343.365 855.495 327.719 869.641C323.203 873.719 318.943 878.026 314.495 882.177C313.781 882.891 313.115 884.109 311.344 883.281ZM459.901 228.911C458.703 228.359 457.646 229.167 456.516 229.214C448.432 229.583 440.693 231.495 433.297 234.698C420.974 240.021 408.672 245.385 395.057 246.703C384.599 247.714 374.74 246.469 365.891 240.229C364.531 239.26 364.005 238.359 364.417 236.703C364.922 234.719 365.359 232.693 365.5 230.62C366.12 221.448 362.208 214.031 356.333 207.51C347.323 197.51 333.432 201.057 327.307 208.5C323.943 212.599 321.776 217.188 320.396 222.234C318.969 227.484 318.458 232.854 317.839 238.245C317.078 244.651 317.724 250.87 319.245 257.021C320.51 262.161 322.26 263.339 327.193 263.38C327.792 264.49 327.099 265.089 326.224 265.479C325.255 265.917 324.078 266.099 323.203 265.661C321.292 264.719 319.958 265.688 318.599 266.677C315.167 269.188 311.755 271.745 308.349 274.328C303.161 278.219 297.844 281.885 292.083 284.833C285.562 288.172 278.63 289.88 271.375 288.474C270.589 289.349 270.75 290.177 270.891 290.891C271.995 296.214 271.49 301.375 269.99 306.557C268.609 311.396 267.224 316.234 265.661 321.031C264.141 325.661 262.734 330.339 261.214 335.177C281.396 347.87 301.344 360.427 321.661 373.193C322.307 369.76 321.406 367.042 321.318 364.276C320.88 353.057 319.495 341.901 318.599 330.729C318.437 328.865 318.943 327.318 319.406 325.729C321.245 325.635 321.594 326.995 322.146 327.896C328.479 338.104 334.818 348.333 341.036 358.609C343.224 362.224 344.677 366.417 347.37 369.573C350.182 372.849 354.12 375.151 357.531 377.891C366.995 385.474 377.203 391.693 389.021 394.896C395.219 396.578 401.552 397.271 407.797 395.635C420.443 392.318 430.672 385.083 439.219 375.333C443.177 370.818 447.047 366.214 450.687 361.073C456.125 364.182 461.354 367.224 466.63 370.219C469.969 372.13 470.87 371.901 472.849 368.745C478.906 359.115 484.37 349.115 489.714 339.094C498.651 322.318 508.141 305.844 515.63 288.333C523.161 270.708 525.948 252.182 525.281 233.109C525.26 232.391 525.51 231.495 524.427 231.057C522.172 232.234 520.349 234.052 518.484 235.828C515.146 239.005 511.391 241.172 506.667 241.932C502.703 242.578 498.974 242.094 495.198 241.286C491.786 240.573 488.375 239.88 484.854 240.271C480.245 240.781 475.635 241.286 471.005 241.63C468.703 241.818 466.333 241.818 464.026 241.609C458.958 241.151 456.656 237.141 458.589 232.438C459.073 231.354 460.182 230.411 459.901 228.911ZM615.536 761.88C617.286 759.417 615.885 757.875 614.385 756.375C604.964 746.859 594 739.302 583.057 731.698C579.484 729.208 575.318 728.682 571.214 728.75C564.583 728.865 557.948 729.49 551.312 729.969C541.911 730.661 532.651 732.323 523.484 734.484C515.583 736.354 507.75 738.563 499.87 740.5C494.573 741.813 489.208 742.391 483.771 741.125C468.703 737.599 453.708 733.75 438.823 729.417C436.568 728.771 433.99 729.12 432.073 728.13C427.88 725.938 423.37 725.063 418.943 723.865C405.005 720.042 390.953 716.656 377.25 712.021C366.719 708.474 356.401 704.375 345.875 700.849C328.271 694.948 310.995 687.948 292.729 684.073C289.781 683.453 288.745 682.026 288.49 678.87C288.375 677.323 288.51 675.755 288.349 674.214C287.266 663.823 286.391 653.406 286.094 642.969C285.979 638.708 285.724 634.448 285.219 630.229C284.99 628.365 285.031 626.38 284.203 624.698C283.005 624.193 282.062 624.63 281.047 624.932C263.151 630.297 246.01 637.396 229.906 646.932C223.896 650.484 217.995 654.193 212.401 658.385C211.042 659.401 209.818 660.365 210.214 662.484C210.901 666.151 211.224 669.906 211.891 673.568C214.771 689.307 217.927 704.995 222.583 720.339C225.505 729.995 228.365 739.646 232.604 748.818C233.526 750.797 234.792 752.203 236.797 753.104C241.286 755.083 245.849 756.833 250.615 758.125C257 759.854 263.562 760.5 270.036 761.651C282.87 763.953 295.839 765.271 308.807 766.51C318.969 767.479 329.057 768.839 339.146 770.224C348.474 771.49 357.76 773.193 367.115 774.255C379.807 775.682 392.547 776.557 405.214 778.193C416.594 779.667 428.021 780.938 439.401 782.432C448.479 783.656 457.625 784.417 466.745 785.104C474.349 785.703 481.901 786.464 489.458 787.385C496.552 788.26 503.026 787.479 508.51 782.297C511.229 779.74 514.224 777.432 517.219 775.198C521.385 772.089 525.974 770.224 531.339 771.396C535.901 772.385 540.323 773.703 544.703 775.339C550.854 777.667 556.75 780.703 563.151 782.411C564.745 782.823 566.333 783.469 567.99 782.505C567.969 782.021 568.083 781.537 567.875 781.302C565.411 778.125 562.391 775.547 558.87 773.609C554.214 771.073 549.536 768.563 544.865 766.099C542.927 765.063 540.901 764.208 538.964 763.125C537.839 762.505 536.594 761.719 537.078 760.13C537.516 758.75 538.828 758.818 540 758.797C545.302 758.724 550.599 758.635 555.828 759.714C562.51 761.099 568.703 763.333 573.891 768.057C577.896 771.698 582.203 775.036 586.422 778.448C588.562 780.177 591.005 781.214 594.344 781.234C591.536 775.198 588.307 770.036 583.354 766.12C579.302 762.896 574.901 760.177 570.203 757.943C566.01 755.938 561.792 753.979 557.578 751.974C556.682 751.536 555.526 751.281 555.849 749.854C558.729 749.578 569.49 754.464 578.521 759.807C585.911 764.188 591.49 770.224 595.682 777.734C595.568 772.688 593.677 768.38 591.052 764.323C587.984 759.599 583.24 756.906 578.635 754C574.026 751.099 569.026 748.958 564.26 746.328C563.198 745.755 562.276 744.995 562.552 743.609C562.807 742.365 563.937 742.115 564.906 741.88C568.682 740.964 572.552 740.682 576.401 740.385C578.542 740.224 580.453 741.005 582.297 742.021C589.667 746.099 596.693 750.635 603.052 756.214C606.578 759.208 610.495 761.49 615.536 761.88ZM856.339 462.245C851.891 470.583 723.969 768.818 723.51 771.833C724.13 772.594 725.052 772.62 725.927 772.849C741.937 776.948 757.948 781.052 773.937 785.177C775.115 785.474 776.589 785.339 777.068 787.063C775.687 788.745 774.099 787.479 772.854 787.182C757.349 783.286 741.87 779.208 726.365 775.292C724.917 774.922 723.443 773.932 721.875 774.625C719.042 775.844 716.047 775.635 713.073 775.635C675.823 775.589 638.552 776.349 601.302 776.672C600.359 776.672 599.323 776.443 598.26 777.297C599.365 779.229 601.047 778.63 602.432 778.609C624.432 778.38 646.406 778.125 668.406 777.802C681.469 777.62 694.531 777.344 707.594 777.068C712.615 776.948 717.453 777.411 722.38 778.839C737.26 783.104 752.328 786.766 767.328 790.682C768.203 790.911 769.052 791.214 769.927 791.443C770.667 791.651 770.964 792.203 770.896 792.87C770.828 793.542 770.505 794.141 769.812 794.323C769.328 794.458 768.802 794.484 768.271 794.484C763.615 794.391 758.964 794.901 754.312 794.969C730.766 795.339 707.245 795.818 683.724 796.557C672.229 796.927 660.714 796.948 649.219 797.224C632.792 797.62 616.37 797.938 599.964 798.333C597.682 798.38 595.865 797.755 594.484 796.12C590.406 791.281 586.49 786.281 582.391 781.464C581.307 780.198 582.203 779.229 582.411 778.193C579.719 776.51 572.573 775.891 567.437 776.927C570.25 779.141 573.542 778.219 576.422 779.229C577.896 781.906 580.109 784.094 582.042 786.51C583.953 788.885 583.401 789.99 580.359 790.615C574.464 791.813 568.5 791.537 562.578 791.234C551.104 790.635 539.677 789.229 528.182 789.021C527.656 789.021 527.193 788.792 526.734 788.031C527.24 786.167 526.937 783.979 527.078 781.813C527.219 779.552 526.526 777.229 527.516 775.083C531.089 774.74 534.448 775.682 538.479 775.682C527.286 772.344 525.026 771.281 514.016 780.708C512.542 781.974 511.089 783.266 509.5 784.37C507.406 785.865 505.193 787.25 503.005 788.583C501.901 789.255 500.724 790.016 499.391 789.807C496.234 789.323 494.042 790.729 491.969 792.938C490.036 794.99 487.687 796.672 485.568 798.563C484.969 799.094 483.885 799.37 484.094 800.615C493.927 800.339 503.74 800.057 513.531 799.76C531.25 799.229 548.964 798.839 566.703 799.344C579.37 799.714 592.062 799.693 604.734 799.505C639.01 799 673.292 798.24 707.547 797.641C727.839 797.297 748.161 797.109 768.479 796.813C771.958 796.766 775.432 796.537 779.396 796.375C828.052 685.109 876.724 573.802 925.401 462.448C921.531 461.021 870.208 460.974 856.339 462.245ZM455.505 718.818C459.099 720.641 462.068 722.161 465.089 723.656C473.312 727.76 481.786 731.24 490.542 734.047C492.271 734.604 493.974 735.13 496 734.417C499.068 728.266 503.901 726.146 510.953 727.344C516.042 728.198 521.229 726.813 525.651 723.656C527.307 722.484 528.505 721.052 527.495 718.656C526.5 718.359 525.536 717.922 524.542 717.807C517.635 716.932 510.724 716.172 503.833 715.271C498.604 714.578 493.375 713.75 488.172 712.969C487.13 712.807 486.073 712.62 486.167 711.172C487.177 710.135 488.375 710.661 489.458 710.802C495.589 711.677 501.714 712.578 507.818 713.589C511.391 714.188 514.271 713.333 517.036 710.849C519.891 708.266 523.208 706.172 526.411 703.979C528.417 702.62 529.266 702.901 530.531 704.859C531.089 705.734 531.547 706.656 531.984 707.599C533.687 711.219 535.349 714.88 537.031 718.495C538.021 720.594 539.474 722.068 541.891 722.094C543.042 721.099 543.365 719.813 543.641 718.568C545.781 708.911 545.255 699.328 542.63 689.859C541.521 685.896 538.734 684.63 534.474 685.25C529.406 685.99 524.911 688.292 520.307 690.318C507.776 695.849 495.266 701.38 482.734 706.885C473.839 710.776 464.974 714.672 455.505 718.818ZM761.729 791.698C760.667 791.349 759.609 790.938 758.526 790.661C745.417 787.25 732.312 783.885 719.224 780.427C716.828 779.787 714.432 779.484 711.969 779.505C689.349 779.807 666.724 780.036 644.104 780.339C629.891 780.521 615.677 780.823 601.464 781.073C600.474 781.099 599.161 780.661 598.562 781.625C596.625 784.76 593.885 783.563 591.281 783.146C589.276 782.823 587.547 781.651 585.453 781.188C588.859 785.776 592.453 790.104 596.12 794.37C597.271 795.703 598.792 796.188 600.609 796.052C604.479 795.797 608.349 795.635 612.219 795.568C632.38 795.177 652.536 794.828 672.714 794.458C673.542 794.438 674.49 794.714 675.271 793.698C674.141 791.74 672.323 791.859 670.573 791.974C666.589 792.224 662.604 792.641 658.615 792.802C652.672 793.01 646.776 793.979 640.833 793.698C639.885 793.656 638.714 794.141 638.182 792.802C638.25 792.526 638.297 792.109 638.411 792.089C648.135 790.589 658.042 791.12 668.729 789.552C664.766 787.573 661.885 785.568 657.974 785.911C653.089 786.328 648.182 786.422 643.276 786.651C641.661 786.719 640.047 786.813 638.411 786.901C638.552 788.26 640.349 789.391 638.37 790.406C633.828 787.063 633.828 787.042 627.839 787.344C620.88 787.688 613.927 788.057 606.969 788.469C606 788.542 605.172 788.771 604.943 787.594C604.943 787.021 605.286 786.745 605.63 786.672C613.651 785.198 621.781 785.474 629.568 785.036C630.604 784.068 629.177 782.62 630.745 782.203C634.865 784.464 634.891 784.37 640.464 784.484C644.865 784.578 649.24 783.865 653.62 784C655.76 784.068 657.51 783.724 658.479 781.672C662.901 784.76 671.172 784.302 674.099 781.146C676.609 783.057 679.578 783.031 682.573 782.896C684.37 782.802 686.167 782.594 687.99 782.505C689.302 782.458 690.797 782.042 691.812 783.792C689.672 786.073 686.766 784.229 684.187 785.542C687.687 787.109 690.708 788.745 694.552 788.422C700.474 787.917 706.417 787.823 712.984 787.5C710.401 785.703 707.844 785.339 706.464 783.401C707.083 782.042 707.823 782.203 708.583 782.547C711.276 783.792 713.88 785.266 716.667 786.234C719.385 787.182 722.083 787.896 724.479 789.693C725.859 790.729 727.656 791.234 728.094 793.01C739.474 793.172 750.557 792.641 761.729 791.698ZM570.849 781.073C570.203 785.224 569.255 785.891 565.297 785.224C561.078 784.484 557.141 782.87 553.224 781.234C549.839 779.828 546.615 777.755 542.651 778.724C542.187 778.839 541.635 778.542 541.13 778.495C537.307 778.219 533.552 777.229 529.474 777.479C529.266 780.635 529.219 783.63 529.844 786.974C546.682 786.698 563.224 790.844 580.521 788.354C579.141 786.698 577.922 785.542 577.068 784.161C575.615 781.906 573.932 780.385 570.849 781.073ZM541.547 761.375C541.453 761.927 541.958 761.953 542.234 762.089C549.172 765.474 556.057 768.979 562.578 773.151C563.016 773.427 563.5 773.839 563.937 773.818C568.245 773.703 572.531 774.807 577 774.115C567.667 763.448 555.135 760.313 541.547 761.375ZM546.615 699.073C547.375 703.474 547.302 707.599 546.979 711.656C546.589 716.677 546.542 721.974 541.891 725.411C544.562 729.167 546.797 729.281 549.099 725.776C552.927 719.974 554.745 713.427 555.344 706.563C555.484 705.089 555.182 703.292 553.755 702.417C551.635 701.099 549.422 699.813 546.615 699.073ZM551.083 727.323C557.719 727.552 558.844 726.859 560.917 721.536C561.286 720.594 561.589 719.604 561.839 718.615C563.177 713.474 562.437 711.656 557.557 708.219C556.682 714.927 554.677 721.193 551.083 727.323ZM698.656 793.656C707.385 794.068 715.932 793.307 724.547 792.734C722.057 791.396 719.849 789.531 716.875 789.646C710.562 789.901 704.25 790.224 697.917 790.5C698.172 791.583 698.401 792.5 698.656 793.656ZM678.219 791.375C677.943 792.479 678.729 793.26 678.057 794.344C684.443 793.818 690.474 794.599 696.766 793.63C690.729 789.068 684.302 791.927 678.219 791.375ZM685.13 789.094C679.51 784.484 673.797 785.292 667.854 786.073C672.875 791.167 678.891 788.677 685.13 789.094ZM369.74 630.297C378.422 619.771 387.5 609.563 395.771 598.505C395.609 597.604 394.984 597.026 393.927 597.583C393.281 597.927 392.75 598.573 392.292 599.193C384.365 609.885 375.359 619.677 366.995 630.021C366.24 630.969 364.948 631.729 365.406 633.917C367.849 633.661 368.635 631.635 369.74 630.297ZM236.635 942.219C237.281 941.688 237.349 940.88 237.557 940.146C245.182 913.948 252.344 887.635 258.865 861.141C258.885 861.068 258.724 860.932 258.635 860.839C258.542 860.75 258.427 860.703 258.104 860.495C256.422 860.75 256.401 862.313 256.031 863.604C253.406 872.75 251.172 882.037 248.729 891.229C244.51 907.037 240.021 922.75 235.62 938.51C235.25 939.844 234.536 941.135 235.599 942.703C236.172 942.427 236.427 942.38 236.635 942.219ZM265.292 867.865C263.75 871.302 262.943 874.964 261.766 878.51C258.24 889.156 254.833 899.849 251.812 910.651C249.833 917.724 248.062 924.844 246.266 931.943C245.943 933.188 244.375 934.87 246.495 935.469C248.219 935.953 248.083 933.901 248.359 932.724C251.651 919.729 255.089 906.781 259.161 894.016C261.745 885.906 264.37 877.823 266.995 869.734C267.365 868.557 268.172 867.406 267.021 866.068C265.984 866.229 265.682 867.016 265.292 867.865ZM436.109 365.682C435.599 365.75 435.094 365.797 434.609 365.932C426.224 368.49 419.589 365.266 414.151 359.229C410.281 354.922 408.786 349.828 411.432 344.182C411.755 343.469 412.193 342.781 411.411 342.021C410.354 341.557 409.776 342.203 409.271 343.031C407.474 345.938 407.104 349.047 407.885 352.365C409.708 359.943 414.891 364.458 421.641 367.641C425.969 369.667 430.396 369.438 434.911 368.448C436.359 368.125 437.281 367.547 436.615 365.958C436.312 365.797 436.198 365.682 436.109 365.682ZM483.146 309.625C482.042 309 481.026 309.599 480.292 310.224C476.604 313.333 473.839 317.182 472 321.651C471.562 322.714 471.562 323.953 472.599 324.854C473.865 325.938 475.109 325.271 476.12 324.531C479.323 322.229 481.557 319.094 483.286 315.594C483.792 314.557 484.276 313.495 484.276 312.391C484.37 311.214 484.208 310.224 483.146 309.625ZM474.599 288.797C476.698 288.125 478.792 287.552 481.026 287.573C487.526 287.667 493.49 289.464 498.859 293.104C499.271 293.406 499.667 293.771 500.125 294.005C500.63 294.255 501.141 294.12 501.484 293.656C501.828 293.198 501.854 292.688 501.464 292.25C501.115 291.859 500.771 291.469 500.354 291.167C492.594 286.031 484.208 283.844 474.969 286.099C473.75 286.401 472.526 286.792 472.115 288.266C472.875 289.234 473.703 289.073 474.599 288.797ZM340.391 219.167C344.859 223.958 346.312 229.927 347.208 236.151C347.552 238.453 347.995 240.734 348.453 243.016C348.635 243.984 349.12 244.698 350.271 244.422C350.964 243.776 350.755 242.969 350.667 242.229C350.068 237.625 349.583 232.99 348.177 228.547C347.396 226.078 346.562 223.594 345.115 221.448C344.005 219.839 342.995 217.901 340.182 217.625C340.297 218.453 340.182 218.958 340.391 219.167ZM783.937 776.604C797.432 745.568 810.885 714.536 824.385 683.5C855.12 612.786 885.87 542.078 916.604 471.344C916.969 470.49 917.984 469.661 916.969 468.234C896.677 467.979 876.172 467.703 855.323 467.448C855.646 469.844 854.724 471.667 853.922 473.531C841.964 501.297 830.052 529.083 818.146 556.849C791.604 618.688 765.089 680.526 738.552 742.365C735.214 750.13 731.875 757.896 728.349 766.099C746.526 771.536 764.516 776.786 783.615 782.182C782.417 779.552 783.266 778.125 783.937 776.604Z" fill="#413F4C"/>
</g>
<defs>
<clipPath id="clip0_1_2">
<rect width="1080" height="1080" fill="white"/>
</clipPath>
</defs>
</svg>
